<?xml version="1.0" encoding="utf-8"?>
<!-- Generator: Adobe Illustrator 15.0.0, SVG Export Plug-In . SVG Version: 6.00 Build 0)  -->
<!DOCTYPE svg PUBLIC "-//W3C//DTD SVG 1.1//EN" "http://www.w3.org/Graphics/SVG/1.1/DTD/svg11.dtd">
<svg version="1.1" id="Layer_1" xmlns="http://www.w3.org/2000/svg" xmlns:xlink="http://www.w3.org/1999/xlink" x="0px" y="0px"
	 width="21px" height="21px" viewBox="5.5 5.5 21 21" enable-background="new 5.5 5.5 21 21" xml:space="preserve">
<g>
	<path fill="#7E7E7E" d="M16,26.002c-5.514,0-10-4.485-10-10c0-5.514,4.486-10,10-10c5.514,0,10,4.486,10,10
		C26,21.517,21.515,26.002,16,26.002z M16,7.318c-4.788,0-8.684,3.896-8.684,8.684s3.896,8.684,8.684,8.684
		c4.788,0,8.683-3.896,8.683-8.684S20.788,7.318,16,7.318z"/>
	<path fill="#7E7E7E" d="M16,26.002c-3.407,0-6.076-4.393-6.076-10s2.669-10,6.076-10s6.076,4.393,6.076,10S19.407,26.002,16,26.002
		z M16,7.318c-2.58,0-4.759,3.977-4.759,8.684S13.42,24.686,16,24.686c2.58,0,4.759-3.977,4.759-8.684S18.58,7.318,16,7.318z"/>
	<path fill="#7E7E7E" d="M16,26.002c-0.363,0-0.658-0.294-0.658-0.658V6.66c0-0.363,0.295-0.658,0.658-0.658
		c0.364,0,0.659,0.295,0.659,0.658v18.684C16.659,25.708,16.364,26.002,16,26.002z"/>
	<path fill="#7E7E7E" d="M25.342,16.661H6.658C6.295,16.661,6,16.366,6,16.002c0-0.363,0.295-0.658,0.658-0.658h18.684
		c0.364,0,0.658,0.295,0.658,0.658C26,16.366,25.706,16.661,25.342,16.661z"/>
</g>
</svg>
