<?xml version="1.0" encoding="utf-8"?>
<!-- Generator: Adobe Illustrator 15.0.0, SVG Export Plug-In . SVG Version: 6.00 Build 0)  -->
<!DOCTYPE svg PUBLIC "-//W3C//DTD SVG 1.1//EN" "http://www.w3.org/Graphics/SVG/1.1/DTD/svg11.dtd">
<svg version="1.1" id="Layer_1" xmlns="http://www.w3.org/2000/svg" xmlns:xlink="http://www.w3.org/1999/xlink" x="0px" y="0px"
	 width="21px" height="21px" viewBox="0 0 21 21" enable-background="new 0 0 21 21" xml:space="preserve">
<g>
	<path fill="#FFFFFF" d="M10.5,20.5c-5.514,0-10-4.484-10-10c0-5.514,4.486-10,10-10c5.514,0,10,4.486,10,10
		C20.5,16.016,16.016,20.5,10.5,20.5z M10.5,1.816c-4.788,0-8.684,3.896-8.684,8.684s3.896,8.684,8.684,8.684
		s8.684-3.896,8.684-8.684S15.288,1.816,10.5,1.816z"/>
	<path fill="#FFFFFF" d="M10.5,20.5c-3.407,0-6.076-4.393-6.076-10c0-5.607,2.669-10,6.076-10s6.076,4.393,6.076,10
		C16.576,16.107,13.907,20.5,10.5,20.5z M10.5,1.816c-2.58,0-4.759,3.977-4.759,8.684s2.179,8.684,4.759,8.684
		s4.759-3.977,4.759-8.684S13.08,1.816,10.5,1.816z"/>
	<path fill="#FFFFFF" d="M10.5,20.5c-0.363,0-0.658-0.294-0.658-0.658V1.158c0-0.363,0.295-0.658,0.658-0.658
		s0.659,0.295,0.659,0.658v18.684C11.159,20.206,10.863,20.5,10.5,20.5z"/>
	<path fill="#FFFFFF" d="M19.842,11.159H1.158c-0.363,0-0.658-0.295-0.658-0.659c0-0.363,0.295-0.658,0.658-0.658h18.684
		c0.364,0,0.658,0.295,0.658,0.658C20.5,10.864,20.206,11.159,19.842,11.159z"/>
</g>
</svg>
