<?xml version="1.0" encoding="utf-8"?>
<!-- Generator: Adobe Illustrator 15.0.0, SVG Export Plug-In . SVG Version: 6.00 Build 0)  -->
<!DOCTYPE svg PUBLIC "-//W3C//DTD SVG 1.1//EN" "http://www.w3.org/Graphics/SVG/1.1/DTD/svg11.dtd">
<svg version="1.1" id="Layer_1" xmlns="http://www.w3.org/2000/svg" xmlns:xlink="http://www.w3.org/1999/xlink" x="0px" y="0px"
	 width="21px" height="21px" viewBox="0 0 21 21" enable-background="new 0 0 21 21" xml:space="preserve">
<g>
	<g>
		<g>
			<circle fill="#FFFFFF" stroke="#FFFFFF" stroke-width="0.5" stroke-miterlimit="10" cx="8.524" cy="11.6" r="0.596"/>
			<circle fill="#FFFFFF" stroke="#FFFFFF" stroke-width="0.5" stroke-miterlimit="10" cx="10.451" cy="11.6" r="0.596"/>
			<circle fill="#FFFFFF" stroke="#FFFFFF" stroke-width="0.5" stroke-miterlimit="10" cx="12.375" cy="11.6" r="0.596"/>
		</g>
		<g>
			<circle fill="#FFFFFF" stroke="#FFFFFF" stroke-width="0.5" stroke-miterlimit="10" cx="8.524" cy="13.586" r="0.596"/>
			<circle fill="#FFFFFF" stroke="#FFFFFF" stroke-width="0.5" stroke-miterlimit="10" cx="10.451" cy="13.586" r="0.596"/>
			<circle fill="#FFFFFF" stroke="#FFFFFF" stroke-width="0.5" stroke-miterlimit="10" cx="12.375" cy="13.586" r="0.596"/>
		</g>
		<g>
			<circle fill="#FFFFFF" stroke="#FFFFFF" stroke-width="0.5" stroke-miterlimit="10" cx="8.524" cy="15.572" r="0.596"/>
			<circle fill="#FFFFFF" stroke="#FFFFFF" stroke-width="0.5" stroke-miterlimit="10" cx="10.451" cy="15.572" r="0.596"/>
			<circle fill="#FFFFFF" stroke="#FFFFFF" stroke-width="0.5" stroke-miterlimit="10" cx="12.375" cy="15.572" r="0.596"/>
		</g>
	</g>
	<path fill="#FFFFFF" stroke="#FFFFFF" stroke-width="0.5" stroke-miterlimit="10" d="M7.782,7.68H2.339
		c-0.311,0-0.566-0.243-0.583-0.552c-0.005-0.09-0.104-2.25,1.379-3.813c0.968-1.021,2.358-1.54,4.134-1.54h3.203
		c0.321,0,0.582,0.261,0.582,0.583s-0.261,0.584-0.582,0.584H7.27c-1.438,0-2.541,0.393-3.279,1.166
		c-0.742,0.777-0.971,1.79-1.04,2.405h4.144L6.823,4.888c-0.028-0.169,0.019-0.342,0.13-0.474c0.112-0.132,0.274-0.206,0.445-0.206
		h2.387c0.323,0,0.584,0.261,0.584,0.583s-0.261,0.583-0.584,0.583H8.087L8.36,7.001c0.027,0.169-0.02,0.342-0.131,0.474
		C8.119,7.607,7.954,7.68,7.782,7.68z"/>
	<path fill="#FFFFFF" stroke="#FFFFFF" stroke-width="0.5" stroke-miterlimit="10" d="M18.176,7.68h-5.441
		c-0.171,0-0.336-0.076-0.445-0.207C12.178,7.342,12.131,7.169,12.159,7l0.271-1.626H9.341c-0.322,0-0.583-0.261-0.583-0.583
		s0.261-0.583,0.583-0.583h3.777c0.171,0,0.335,0.075,0.445,0.206c0.111,0.131,0.159,0.304,0.129,0.473l-0.271,1.626h4.145
		c-0.07-0.616-0.3-1.628-1.04-2.405c-0.739-0.774-1.844-1.167-3.28-1.167h-3.203c-0.322,0-0.583-0.262-0.583-0.584
		c0-0.323,0.261-0.583,0.583-0.583h3.203c1.775,0,3.165,0.517,4.134,1.539c1.481,1.565,1.384,3.723,1.379,3.813
		C18.742,7.437,18.486,7.68,18.176,7.68z"/>
	<g>
		<path fill="#FFFFFF" stroke="#FFFFFF" stroke-width="0.5" stroke-miterlimit="10" d="M14.626,18.545H5.837
			c-2.252,0-4.083-1.832-4.083-4.084v-1.75c0-2.251,1.831-4.083,4.083-4.083h8.789c2.252,0,4.083,1.832,4.083,4.083v1.75
			C18.709,16.713,16.878,18.545,14.626,18.545z M5.837,9.795c-1.608,0-2.916,1.306-2.916,2.916v1.75
			c0,1.607,1.309,2.916,2.916,2.916h8.789c1.609,0,2.917-1.309,2.917-2.916v-1.75c0-1.609-1.308-2.916-2.917-2.916H5.837z"/>
	</g>
</g>
</svg>
