<?xml version="1.0" encoding="utf-8"?>
<!-- Generator: Adobe Illustrator 15.0.0, SVG Export Plug-In . SVG Version: 6.00 Build 0)  -->
<!DOCTYPE svg PUBLIC "-//W3C//DTD SVG 1.1//EN" "http://www.w3.org/Graphics/SVG/1.1/DTD/svg11.dtd">
<svg version="1.1" id="Layer_1" xmlns="http://www.w3.org/2000/svg" xmlns:xlink="http://www.w3.org/1999/xlink" x="0px" y="0px"
	 width="21px" height="21px" viewBox="5.5 5.5 21 21" enable-background="new 5.5 5.5 21 21" xml:space="preserve">
<g>
	<g>
		<g>
			<circle fill="#7E7E7E" cx="13.961" cy="17.694" r="0.7"/>
			<circle fill="#7E7E7E" cx="16.226" cy="17.694" r="0.7"/>
			<circle fill="#7E7E7E" cx="18.49" cy="17.694" r="0.7"/>
		</g>
		<g>
			<circle fill="#7E7E7E" cx="13.961" cy="20.028" r="0.7"/>
			<circle fill="#7E7E7E" cx="16.226" cy="20.028" r="0.7"/>
			<circle fill="#7E7E7E" cx="18.49" cy="20.028" r="0.7"/>
		</g>
		<g>
			<circle fill="#7E7E7E" cx="13.961" cy="22.364" r="0.7"/>
			<circle fill="#7E7E7E" cx="16.226" cy="22.364" r="0.7"/>
			<circle fill="#7E7E7E" cx="18.49" cy="22.364" r="0.7"/>
		</g>
	</g>
	<path fill="#7E7E7E" d="M13.088,13.085h-6.4c-0.365,0-0.665-0.286-0.685-0.649c-0.006-0.107-0.122-2.646,1.622-4.485
		c1.138-1.201,2.773-1.81,4.862-1.81h3.766c0.378,0,0.685,0.307,0.685,0.686s-0.307,0.687-0.685,0.687h-3.766
		c-1.691,0-2.989,0.462-3.857,1.372c-0.872,0.914-1.141,2.104-1.223,2.828h4.873l-0.319-1.912c-0.033-0.199,0.022-0.402,0.153-0.557
		s0.322-0.242,0.523-0.242h2.807c0.379,0,0.686,0.307,0.686,0.686s-0.307,0.686-0.686,0.686h-1.997l0.32,1.912
		c0.033,0.199-0.023,0.402-0.153,0.557S13.29,13.085,13.088,13.085z"/>
	<path fill="#7E7E7E" d="M25.311,13.085h-6.4c-0.201,0-0.393-0.089-0.523-0.243c-0.13-0.154-0.186-0.357-0.152-0.557l0.319-1.912
		h-3.633c-0.379,0-0.686-0.307-0.686-0.686s0.307-0.686,0.686-0.686h4.442c0.201,0,0.393,0.088,0.523,0.242s0.186,0.357,0.152,0.557
		l-0.318,1.912h4.872c-0.081-0.724-0.352-1.914-1.223-2.828c-0.868-0.911-2.167-1.372-3.857-1.372h-3.766
		c-0.379,0-0.686-0.308-0.686-0.687s0.307-0.686,0.686-0.686h3.766c2.088,0,3.724,0.608,4.861,1.81
		c1.743,1.84,1.628,4.378,1.622,4.485C25.977,12.799,25.676,13.085,25.311,13.085z"/>
	<g>
		<path fill="#7E7E7E" d="M21.137,25.859H10.801C8.153,25.859,6,23.705,6,21.059V19c0-2.646,2.153-4.8,4.801-4.8h10.336
			c2.648,0,4.801,2.154,4.801,4.8v2.059C25.938,23.705,23.785,25.859,21.137,25.859z M10.801,15.572
			c-1.891,0-3.429,1.538-3.429,3.428v2.059c0,1.891,1.539,3.428,3.429,3.428h10.336c1.892,0,3.43-1.537,3.43-3.428V19
			c0-1.891-1.538-3.428-3.43-3.428H10.801z"/>
	</g>
</g>
</svg>
