<?xml version="1.0" encoding="utf-8"?>
<!-- Generator: Adobe Illustrator 15.0.0, SVG Export Plug-In . SVG Version: 6.00 Build 0)  -->
<!DOCTYPE svg PUBLIC "-//W3C//DTD SVG 1.1//EN" "http://www.w3.org/Graphics/SVG/1.1/DTD/svg11.dtd">
<svg version="1.1" id="Layer_1" xmlns="http://www.w3.org/2000/svg" xmlns:xlink="http://www.w3.org/1999/xlink" x="0px" y="0px"
	 width="800px" height="1400px" viewBox="0 0 800 1400" enable-background="new 0 0 800 1400" xml:space="preserve">
<g>
	<g>
		<circle fill="#231F20" cx="399.979" cy="1043.219" r="1.021"/>
		<circle fill="#231F20" cx="403.281" cy="1043.219" r="1.021"/>
		<circle fill="#231F20" cx="406.583" cy="1043.219" r="1.021"/>
	</g>
	<g>
		<circle fill="#231F20" cx="399.979" cy="1046.624" r="1.021"/>
		<circle fill="#231F20" cx="403.281" cy="1046.624" r="1.021"/>
		<circle fill="#231F20" cx="406.583" cy="1046.624" r="1.021"/>
	</g>
	<g>
		<circle fill="#231F20" cx="399.979" cy="1050.03" r="1.021"/>
		<circle fill="#231F20" cx="403.281" cy="1050.03" r="1.021"/>
		<circle fill="#231F20" cx="406.583" cy="1050.03" r="1.021"/>
	</g>
</g>
<path fill="none" stroke="#231F20" stroke-width="2" stroke-linecap="round" stroke-linejoin="round" stroke-miterlimit="10" d="
	M402.139,1031.547h-4.092l0.66,3.953h-9.333c0,0-0.439-8.125,8.455-8.125s4.31,0,4.31,0"/>
<path fill="none" stroke="#231F20" stroke-width="2" stroke-linecap="round" stroke-linejoin="round" stroke-miterlimit="10" d="
	M401.379,1031.547h6.476l-0.66,3.953h9.333c0,0,0.438-8.125-8.455-8.125c-8.893,0-4.31,0-4.31,0"/>
<g>
	<path fill="none" stroke="#231F20" stroke-width="2" stroke-linecap="round" stroke-linejoin="round" stroke-miterlimit="10" d="
		M416.443,1048.125c0,3.3-2.7,6-6,6h-15.072c-3.3,0-6-2.7-6-6v-3c0-3.3,2.7-6,6-6h15.072c3.3,0,6,2.7,6,6V1048.125z"/>
</g>
</svg>
