<?xml version="1.0" encoding="utf-8"?>
<!-- Generator: Adobe Illustrator 15.0.0, SVG Export Plug-In . SVG Version: 6.00 Build 0)  -->
<!DOCTYPE svg PUBLIC "-//W3C//DTD SVG 1.1//EN" "http://www.w3.org/Graphics/SVG/1.1/DTD/svg11.dtd">
<svg version="1.1" id="Warstwa_1" xmlns="http://www.w3.org/2000/svg" xmlns:xlink="http://www.w3.org/1999/xlink" x="0px" y="0px"
	 width="33.333px" height="31.339px" viewBox="0 0 33.333 31.339" enable-background="new 0 0 33.333 31.339" xml:space="preserve">
<g>
	<path fill="#7E7E7E" d="M9.687,27.083c-3.014,0-5.933-1.79-5.933-6.593c0-5.462,4.426-11.207,9.324-14.221l1.884,1.978
		c-4.709,3.956-5.934,6.687-6.31,8.57L8.84,17.1c0.565-0.095,1.036-0.095,1.601,0c3.014,0.282,4.521,2.354,4.521,5.085
		C14.961,24.728,13.172,27.083,9.687,27.083z M24.662,27.083c-3.014,0-5.934-1.79-5.934-6.593c0-5.462,4.426-11.207,9.323-14.221
		l1.884,1.978c-4.709,3.956-5.934,6.687-6.311,8.57l0.189,0.283c3.014-0.283,6.121,1.224,6.121,5.085
		C29.935,24.728,28.146,27.083,24.662,27.083z"/>
</g>
</svg>
