<?xml version="1.0" encoding="utf-8"?>
<!-- Generator: Adobe Illustrator 15.0.0, SVG Export Plug-In . SVG Version: 6.00 Build 0)  -->
<!DOCTYPE svg PUBLIC "-//W3C//DTD SVG 1.1//EN" "http://www.w3.org/Graphics/SVG/1.1/DTD/svg11.dtd">
<svg version="1.1" id="Layer_1" xmlns="http://www.w3.org/2000/svg" xmlns:xlink="http://www.w3.org/1999/xlink" x="0px" y="0px"
	 width="25px" height="25px" viewBox="72.54 72.54 25 25" enable-background="new 72.54 72.54 25 25" xml:space="preserve">
<g>
	<g>
		<path fill="#AEAEAE" d="M93.478,97.312c-2.109,0-3.834-1.727-3.834-3.834c0-0.27,0.037-0.576,0.076-0.805l-10.202-5.141
			c-0.729,0.844-1.764,1.344-2.916,1.344c-2.108,0-3.834-1.727-3.834-3.835c0-2.11,1.726-3.835,3.834-3.835
			c1.151,0,2.186,0.499,2.916,1.342l10.237-5.101c-0.074-0.268-0.111-0.575-0.111-0.844c0-2.108,1.725-3.834,3.834-3.834
			s3.834,1.726,3.834,3.834c0,2.11-1.725,3.836-3.834,3.836c-1.305,0-2.416-0.652-3.107-1.611L80.246,83.89
			c0.115,0.383,0.192,0.767,0.192,1.151s-0.077,0.804-0.192,1.151l10.087,5.061c0.689-0.959,1.84-1.609,3.105-1.609
			c2.109,0,3.836,1.725,3.836,3.834C97.274,95.585,95.587,97.312,93.478,97.312z M93.478,91.175c-1.266,0-2.301,1.037-2.301,2.303
			c0,1.264,1.035,2.299,2.301,2.299s2.299-1.035,2.299-2.299C95.776,92.212,94.743,91.175,93.478,91.175z M76.603,82.739
			c-1.265,0-2.301,1.036-2.301,2.302c0,1.265,1.036,2.3,2.301,2.3c1.266,0,2.301-1.035,2.301-2.3
			C78.904,83.775,77.868,82.739,76.603,82.739z M93.478,74.302c-1.266,0-2.301,1.036-2.301,2.301c0,1.266,1.035,2.301,2.301,2.301
			s2.299-1.035,2.299-2.301C95.776,75.338,94.743,74.302,93.478,74.302z"/>
	</g>
</g>
</svg>
