<?xml version="1.0" encoding="utf-8"?>
<!-- Generator: Adobe Illustrator 15.0.0, SVG Export Plug-In . SVG Version: 6.00 Build 0)  -->
<!DOCTYPE svg PUBLIC "-//W3C//DTD SVG 1.1//EN" "http://www.w3.org/Graphics/SVG/1.1/DTD/svg11.dtd">
<svg version="1.1" id="Layer_1" xmlns="http://www.w3.org/2000/svg" xmlns:xlink="http://www.w3.org/1999/xlink" x="0px" y="0px"
	 width="800px" height="1400px" viewBox="0 0 800 1400" enable-background="new 0 0 800 1400" xml:space="preserve">
<path fill="none" stroke="#C99166" stroke-width="2" stroke-linecap="round" stroke-linejoin="round" stroke-miterlimit="10" d="
	M465.374,779.636c0.125,0.814,0.18,1.651,0.161,2.503c-0.182,7.891-6.724,14.142-14.615,13.962
	c-7.892-0.181-14.142-6.724-13.962-14.616c0.183-7.891,6.724-14.142,14.616-13.962c3.594,0.082,6.848,1.486,9.31,3.736
	c0.183,0.167,0.362,0.34,0.538,0.519"/>
<g>
	<path fill="#C99166" d="M452.511,787.27c-0.256,0-0.512-0.098-0.707-0.293l-7.366-7.367c-0.391-0.391-0.391-1.023,0-1.414
		s1.023-0.391,1.414,0l6.659,6.66l15.485-15.484c0.391-0.391,1.023-0.391,1.414,0s0.391,1.023,0,1.414l-16.192,16.191
		C453.022,787.172,452.767,787.27,452.511,787.27z"/>
</g>
</svg>
