<?xml version="1.0" encoding="utf-8"?>
<!-- Generator: Adobe Illustrator 15.0.0, SVG Export Plug-In . SVG Version: 6.00 Build 0)  -->
<!DOCTYPE svg PUBLIC "-//W3C//DTD SVG 1.1//EN" "http://www.w3.org/Graphics/SVG/1.1/DTD/svg11.dtd">
<svg version="1.1" id="Layer_1" xmlns="http://www.w3.org/2000/svg" xmlns:xlink="http://www.w3.org/1999/xlink" x="0px" y="0px"
	 width="37px" height="34px" viewBox="434.334 763.75 37 34" enable-background="new 434.334 763.75 37 34" xml:space="preserve">
<path fill="none" stroke="#C99166" stroke-width="2" stroke-linecap="round" stroke-linejoin="round" stroke-miterlimit="10" d="
	M465.374,778.636c0.125,0.814,0.18,1.651,0.161,2.503c-0.183,7.892-6.725,14.143-14.615,13.962
	c-7.892-0.181-14.142-6.724-13.962-14.615c0.183-7.892,6.724-14.143,14.616-13.962c3.594,0.081,6.848,1.485,9.31,3.735
	c0.184,0.167,0.362,0.34,0.538,0.52"/>
<g>
	<path fill="#C99166" d="M452.511,786.27c-0.256,0-0.512-0.098-0.707-0.293l-7.365-7.366c-0.392-0.392-0.392-1.023,0-1.414
		c0.391-0.392,1.022-0.392,1.413,0l6.659,6.659l15.485-15.483c0.391-0.392,1.022-0.392,1.414,0c0.391,0.391,0.391,1.022,0,1.414
		l-16.192,16.19C453.022,786.172,452.767,786.27,452.511,786.27z"/>
</g>
</svg>
